<svg xmlns="http://www.w3.org/2000/svg" width="96.27" height="125.217" viewBox="0 0 96.27 125.217">
  <g id="Group_34" data-name="Group 34" transform="translate(-506.73 -4968.783)">
    <g id="Icon_feather-linkedin" data-name="Icon feather-linkedin" transform="translate(505.23 4967.283)">
      <path id="Path_20" data-name="Path 20" d="M42.935,12A27.935,27.935,0,0,1,70.87,39.935V72.526H52.247V39.935a9.312,9.312,0,0,0-18.623,0V72.526H15V39.935A27.935,27.935,0,0,1,42.935,12Z" transform="translate(25.247 18.935)" fill="none" stroke="#000" stroke-linecap="round" stroke-linejoin="round" stroke-width="3"/>
      <path id="Path_21" data-name="Path 21" d="M3,13.5H21.623V69.37H3Z" transform="translate(0 22.091)" fill="none" stroke="#000" stroke-linecap="round" stroke-linejoin="round" stroke-width="3"/>
      <path id="Path_22" data-name="Path 22" d="M21.623,12.312A9.312,9.312,0,1,1,12.312,3a9.312,9.312,0,0,1,9.312,9.312Z" transform="translate(0 0)" fill="none" stroke="#000" stroke-linecap="round" stroke-linejoin="round" stroke-width="3"/>
    </g>
    <text id="LinkedIn" transform="translate(507 5088)" fill="#707070" font-size="20" font-family="Cascadia Code"><tspan x="0" y="0">LinkedIn</tspan></text>
  </g>
</svg>
