<?xml version="1.0" standalone="no"?>
<!DOCTYPE svg PUBLIC "-//W3C//DTD SVG 20010904//EN"
 "http://www.w3.org/TR/2001/REC-SVG-20010904/DTD/svg10.dtd">
<svg version="1.0" xmlns="http://www.w3.org/2000/svg"
 width="5693.000000pt" height="3201.000000pt" viewBox="0 0 5693.000000 3201.000000"
 preserveAspectRatio="xMidYMid meet">
<metadata>
Created by potrace 1.16, written by Peter Selinger 2001-2019
</metadata>
<g transform="translate(0.000000,3201.000000) scale(0.100000,-0.100000)"
fill="#000000" stroke="none">
<path d="M11990 21535 c0 -87 3 -105 15 -105 12 0 15 -13 15 -60 0 -47 3 -60
15 -60 11 0 15 -12 15 -45 0 -33 4 -45 15 -45 11 0 15 -12 15 -45 0 -33 4 -45
15 -45 10 0 15 -10 15 -30 0 -20 5 -30 15 -30 11 0 15 -12 15 -45 0 -33 4 -45
15 -45 10 0 15 -10 15 -30 0 -20 5 -30 15 -30 8 0 15 -9 15 -20 0 -11 7 -20
15 -20 10 0 15 -10 15 -30 0 -20 5 -30 15 -30 8 0 15 -7 15 -15 0 -8 7 -15 15
-15 10 0 15 -10 15 -30 0 -20 5 -30 15 -30 8 0 15 -7 15 -15 0 -8 7 -15 15
-15 8 0 15 -7 15 -15 0 -8 7 -15 15 -15 10 0 15 -10 15 -30 0 -20 5 -30 15
-30 8 0 15 -7 15 -15 0 -8 7 -15 15 -15 8 0 15 -7 15 -15 0 -8 7 -15 15 -15 8
0 15 -7 15 -15 0 -8 7 -15 15 -15 8 0 15 -7 15 -15 0 -8 7 -15 15 -15 8 0 15
-7 15 -15 0 -8 7 -15 15 -15 8 0 15 -7 15 -15 0 -8 7 -15 15 -15 8 0 15 -7 15
-15 0 -8 7 -15 15 -15 8 0 15 -7 15 -15 0 -10 10 -15 30 -15 20 0 30 -5 30
-15 0 -8 7 -15 15 -15 8 0 15 -7 15 -15 0 -8 9 -15 20 -15 11 0 20 -7 20 -15
0 -10 10 -15 30 -15 20 0 30 -5 30 -15 0 -8 7 -15 15 -15 8 0 15 -7 15 -15 0
-10 10 -15 30 -15 20 0 30 -5 30 -15 0 -8 7 -15 15 -15 8 0 15 -7 15 -15 0
-10 10 -15 30 -15 20 0 30 -5 30 -15 0 -10 10 -15 30 -15 20 0 30 -5 30 -15 0
-10 10 -15 30 -15 20 0 30 -5 30 -15 0 -10 10 -15 30 -15 20 0 30 -5 30 -15 0
-10 10 -15 30 -15 20 0 30 -5 30 -15 0 -11 12 -15 45 -15 33 0 45 -4 45 -15 0
-10 10 -15 30 -15 20 0 30 -5 30 -15 0 -11 12 -15 45 -15 33 0 45 -4 45 -15 0
-11 12 -15 45 -15 33 0 45 -4 45 -15 0 -11 12 -15 45 -15 33 0 45 -4 45 -15 0
-12 13 -15 60 -15 47 0 60 -3 60 -15 0 -12 15 -15 75 -15 60 0 75 -3 75 -15 0
-12 15 -15 75 -15 60 0 75 -3 75 -15 0 -12 17 -15 95 -15 78 0 95 -3 95 -15 0
-13 22 -15 135 -15 113 0 135 -2 135 -15 0 -13 28 -15 195 -15 167 0 195 -2
195 -15 0 -13 32 -15 225 -15 193 0 225 -2 225 -15 0 -13 41 -15 305 -15 264
0 305 -2 305 -15 0 -13 52 -15 405 -15 353 0 405 -2 405 -15 0 -13 71 -15 575
-15 504 0 575 -2 575 -15 0 -13 117 -15 995 -15 878 0 995 -2 995 -15 0 -13
223 -15 1950 -15 l1950 0 0 -30 c0 -20 5 -30 15 -30 12 0 15 -14 15 -65 0 -51
3 -65 15 -65 12 0 15 -15 15 -75 0 -60 3 -75 15 -75 12 0 15 -13 15 -60 0 -47
3 -60 15 -60 12 0 15 -15 15 -75 0 -60 3 -75 15 -75 12 0 15 -13 15 -60 0 -47
3 -60 15 -60 12 0 15 -15 15 -75 0 -60 3 -75 15 -75 12 0 15 -13 15 -60 0 -47
3 -60 15 -60 12 0 15 -15 15 -75 0 -60 3 -75 15 -75 12 0 15 -13 15 -60 0 -47
3 -60 15 -60 12 0 15 -15 15 -75 0 -60 3 -75 15 -75 12 0 15 -13 15 -60 0 -47
3 -60 15 -60 12 0 15 -16 15 -80 0 -64 3 -80 15 -80 12 0 15 -13 15 -60 0 -47
3 -60 15 -60 12 0 15 -13 15 -60 0 -47 3 -60 15 -60 12 0 15 -15 15 -75 0 -60
3 -75 15 -75 12 0 15 -13 15 -60 0 -47 3 -60 15 -60 12 0 15 -15 15 -75 0 -60
3 -75 15 -75 12 0 15 -13 15 -60 0 -47 3 -60 15 -60 12 0 15 -15 15 -75 0 -60
3 -75 15 -75 12 0 15 -13 15 -60 0 -47 3 -60 15 -60 12 0 15 -15 15 -75 0 -60
3 -75 15 -75 12 0 15 -13 15 -60 0 -47 3 -60 15 -60 12 0 15 -16 15 -80 0 -64
3 -80 15 -80 12 0 15 -13 15 -60 0 -53 2 -60 20 -60 18 0 20 -7 20 -75 0 -60
3 -75 15 -75 12 0 15 -13 15 -60 0 -47 3 -60 15 -60 12 0 15 -15 15 -75 0 -60
3 -75 15 -75 12 0 15 -13 15 -60 0 -47 3 -60 15 -60 12 0 15 -15 15 -75 0 -60
3 -75 15 -75 12 0 15 -13 15 -60 0 -47 3 -60 15 -60 12 0 15 -15 15 -75 0 -60
3 -75 15 -75 12 0 15 -13 15 -60 0 -47 3 -60 15 -60 12 0 15 -15 15 -75 0 -60
3 -75 15 -75 12 0 15 -14 15 -65 0 -51 3 -65 15 -65 12 0 15 -15 15 -75 0 -60
3 -75 15 -75 12 0 15 -13 15 -60 0 -47 3 -60 15 -60 12 0 15 -15 15 -75 0 -60
3 -75 15 -75 12 0 15 -13 15 -60 0 -47 3 -60 15 -60 12 0 15 -15 15 -75 0 -60
3 -75 15 -75 12 0 15 -13 15 -60 0 -47 3 -60 15 -60 12 0 15 -13 15 -60 0 -47
3 -60 15 -60 12 0 15 -15 15 -75 0 -60 3 -75 15 -75 12 0 15 -13 15 -60 0 -47
3 -60 15 -60 12 0 15 -15 15 -75 0 -60 3 -75 15 -75 12 0 15 -14 15 -65 0 -51
3 -65 15 -65 12 0 15 -15 15 -75 0 -60 3 -75 15 -75 12 0 15 -13 15 -60 0 -47
3 -60 15 -60 12 0 15 -15 15 -75 0 -60 3 -75 15 -75 12 0 15 -13 15 -60 0 -47
3 -60 15 -60 12 0 15 -15 15 -75 0 -60 3 -75 15 -75 12 0 15 -13 15 -60 0 -47
3 -60 15 -60 12 0 15 -15 15 -75 0 -60 3 -75 15 -75 12 0 15 -13 15 -60 0 -47
3 -60 15 -60 12 0 15 -15 15 -75 0 -60 3 -75 15 -75 12 0 15 -13 15 -60 0 -47
3 -60 15 -60 12 0 15 -16 15 -80 0 -64 3 -80 15 -80 12 0 15 -13 15 -60 0 -47
3 -60 15 -60 12 0 15 -15 15 -75 0 -60 3 -75 15 -75 12 0 15 -13 15 -60 0 -47
3 -60 15 -60 12 0 15 -15 15 -75 0 -60 3 -75 15 -75 12 0 15 -13 15 -60 0 -47
3 -60 15 -60 12 0 15 -15 15 -75 0 -60 3 -75 15 -75 12 0 15 -13 15 -60 0 -47
3 -60 15 -60 12 0 15 -15 15 -75 0 -60 3 -75 15 -75 12 0 15 -13 15 -60 0 -47
3 -60 15 -60 12 0 15 -16 15 -80 0 -64 3 -80 15 -80 12 0 15 -13 15 -60 0 -47
3 -60 15 -60 13 0 15 79 15 650 0 571 2 650 15 650 13 0 15 202 15 1755 l0
1755 2540 0 2540 0 0 -105 c0 -87 3 -105 15 -105 13 0 15 -263 15 -2310 0
-2047 2 -2310 15 -2310 9 0 15 9 15 25 0 16 6 25 15 25 12 0 15 16 15 80 0 64
3 80 15 80 12 0 15 13 15 60 0 47 3 60 15 60 12 0 15 15 15 75 0 60 3 75 15
75 12 0 15 13 15 60 0 47 3 60 15 60 12 0 15 15 15 75 0 60 3 75 15 75 12 0
15 13 15 60 0 47 3 60 15 60 12 0 15 15 15 75 0 60 3 75 15 75 12 0 15 13 15
60 0 47 3 60 15 60 12 0 15 15 15 75 0 60 3 75 15 75 12 0 15 13 15 60 0 47 3
60 15 60 12 0 15 15 15 75 0 60 3 75 15 75 12 0 15 14 15 65 0 51 3 65 15 65
12 0 15 15 15 75 0 60 3 75 15 75 12 0 15 13 15 60 0 47 3 60 15 60 12 0 15
15 15 75 0 60 3 75 15 75 12 0 15 13 15 60 0 47 3 60 15 60 12 0 15 13 15 60
0 47 3 60 15 60 12 0 15 15 15 75 0 60 3 75 15 75 12 0 15 13 15 60 0 47 3 60
15 60 12 0 15 15 15 75 0 60 3 75 15 75 12 0 15 13 15 60 0 47 3 60 15 60 12
0 15 15 15 75 0 60 3 75 15 75 12 0 15 14 15 65 0 51 3 65 15 65 12 0 15 15
15 75 0 60 3 75 15 75 12 0 15 13 15 60 0 47 3 60 15 60 12 0 15 15 15 75 0
60 3 75 15 75 12 0 15 13 15 60 0 47 3 60 15 60 12 0 15 15 15 75 0 60 3 75
15 75 12 0 15 13 15 60 0 47 3 60 15 60 12 0 15 15 15 75 0 68 2 75 20 75 18
0 20 7 20 60 0 47 3 60 15 60 12 0 15 15 15 75 0 60 3 75 15 75 12 0 15 13 15
60 0 47 3 60 15 60 12 0 15 16 15 80 0 64 3 80 15 80 12 0 15 13 15 60 0 47 3
60 15 60 12 0 15 15 15 75 0 60 3 75 15 75 12 0 15 13 15 60 0 47 3 60 15 60
12 0 15 15 15 75 0 60 3 75 15 75 12 0 15 13 15 60 0 47 3 60 15 60 12 0 15
15 15 75 0 60 3 75 15 75 12 0 15 13 15 60 0 47 3 60 15 60 12 0 15 15 15 75
0 60 3 75 15 75 12 0 15 13 15 60 0 47 3 60 15 60 12 0 15 13 15 60 0 47 3 60
15 60 12 0 15 16 15 80 0 64 3 80 15 80 12 0 15 13 15 60 0 47 3 60 15 60 12
0 15 15 15 75 0 60 3 75 15 75 12 0 15 13 15 60 0 47 3 60 15 60 12 0 15 15
15 75 0 60 3 75 15 75 12 0 15 13 15 60 0 47 3 60 15 60 12 0 15 15 15 75 0
60 3 75 15 75 12 0 15 13 15 60 0 47 3 60 15 60 12 0 15 15 15 75 0 60 3 75
15 75 12 0 15 13 15 60 0 47 3 60 15 60 12 0 15 15 15 75 0 60 3 75 15 75 12
0 15 14 15 65 0 51 3 65 15 65 12 0 15 15 15 75 0 60 3 75 15 75 12 0 15 13
15 60 0 47 3 60 15 60 12 0 15 15 15 75 0 60 3 75 15 75 12 0 15 13 15 60 0
47 3 60 15 60 12 0 15 15 15 75 0 60 3 75 15 75 12 0 15 13 15 60 0 47 3 60
15 60 12 0 15 15 15 75 0 60 3 75 15 75 12 0 15 13 15 60 0 47 3 60 15 60 12
0 15 15 15 75 0 60 3 75 15 75 12 0 15 13 15 60 0 47 3 60 15 60 12 0 15 16
15 80 l0 80 1965 0 c1740 0 1965 2 1965 15 0 13 117 15 995 15 878 0 995 2
995 15 0 13 71 15 575 15 504 0 575 2 575 15 0 13 51 15 395 15 344 0 395 2
395 15 0 13 40 15 300 15 260 0 300 2 300 15 0 13 33 15 240 15 207 0 240 2
240 15 0 13 27 15 185 15 158 0 185 2 185 15 0 13 22 15 135 15 113 0 135 2
135 15 0 12 18 15 105 15 87 0 105 3 105 15 0 12 15 15 75 15 60 0 75 3 75 15
0 12 13 15 60 15 47 0 60 3 60 15 0 12 13 15 60 15 47 0 60 3 60 15 0 12 13
15 60 15 47 0 60 3 60 15 0 11 12 15 45 15 33 0 45 4 45 15 0 11 12 15 45 15
33 0 45 4 45 15 0 10 10 15 30 15 20 0 30 5 30 15 0 11 12 15 45 15 33 0 45 4
45 15 0 10 10 15 30 15 20 0 30 5 30 15 0 10 11 15 35 15 24 0 35 5 35 15 0
10 10 15 30 15 20 0 30 5 30 15 0 10 10 15 30 15 20 0 30 5 30 15 0 8 7 15 15
15 8 0 15 7 15 15 0 10 10 15 30 15 20 0 30 5 30 15 0 10 10 15 30 15 20 0 30
5 30 15 0 8 7 15 15 15 8 0 15 7 15 15 0 10 10 15 30 15 20 0 30 5 30 15 0 8
7 15 15 15 8 0 15 7 15 15 0 8 7 15 15 15 8 0 15 7 15 15 0 8 7 15 15 15 8 0
15 7 15 15 0 10 10 15 30 15 20 0 30 5 30 15 0 8 7 15 15 15 8 0 15 7 15 15 0
8 7 15 15 15 8 0 15 7 15 15 0 8 7 15 15 15 8 0 15 7 15 15 0 8 7 15 15 15 8
0 15 7 15 15 0 8 7 15 15 15 8 0 15 7 15 15 0 8 7 15 15 15 10 0 15 10 15 30
0 20 5 30 15 30 8 0 15 7 15 15 0 8 7 15 15 15 8 0 15 7 15 15 0 8 7 15 15 15
10 0 15 10 15 30 0 20 5 30 15 30 8 0 15 7 15 15 0 8 7 15 15 15 10 0 15 10
15 30 0 20 5 30 15 30 8 0 15 7 15 15 0 8 7 15 15 15 10 0 15 11 15 35 0 24 5
35 15 35 10 0 15 10 15 30 0 20 5 30 15 30 10 0 15 10 15 30 0 20 5 30 15 30
11 0 15 12 15 45 0 33 4 45 15 45 11 0 15 12 15 45 0 33 4 45 15 45 11 0 15
12 15 45 0 33 4 45 15 45 12 0 15 15 15 75 0 60 3 75 15 75 12 0 15 15 15 75
l0 75 -800 0 c-704 0 -800 -2 -800 -15 0 -13 -124 -15 -1055 -15 -931 0 -1055
-2 -1055 -15 0 -13 -124 -15 -1060 -15 -936 0 -1060 -2 -1060 -15 0 -13 -126
-15 -1070 -15 -944 0 -1070 -2 -1070 -15 0 -13 -124 -15 -1060 -15 -936 0
-1060 -2 -1060 -15 0 -13 -124 -15 -1055 -15 -931 0 -1055 -2 -1055 -15 0 -13
-104 -15 -875 -15 -771 0 -875 -2 -875 -15 0 -8 -7 -15 -15 -15 -13 0 -15
-109 -15 -920 0 -811 2 -920 15 -920 13 0 15 -179 15 -1555 l0 -1555 -2525 0
-2525 0 0 2220 c0 1967 2 2220 15 2220 13 0 15 35 15 255 0 220 -2 255 -15
255 -8 0 -15 7 -15 15 0 13 -104 15 -875 15 -771 0 -875 2 -875 15 0 13 -124
15 -1055 15 -931 0 -1055 2 -1055 15 0 13 -126 15 -1075 15 -949 0 -1075 2
-1075 15 0 13 -124 15 -1055 15 -931 0 -1055 2 -1055 15 0 13 -124 15 -1055
15 -931 0 -1055 2 -1055 15 0 13 -126 15 -1075 15 -949 0 -1075 2 -1075 15 0
13 -94 15 -785 15 l-785 0 0 -105z"/>
<path d="M13050 19115 c0 -87 3 -105 15 -105 12 0 15 -15 15 -75 0 -60 3 -75
15 -75 11 0 15 -12 15 -45 0 -33 4 -45 15 -45 10 0 15 -10 15 -30 0 -20 5 -30
15 -30 11 0 15 -12 15 -45 0 -33 4 -45 15 -45 10 0 15 -10 15 -30 0 -20 5 -30
15 -30 10 0 15 -10 15 -30 0 -20 5 -30 15 -30 10 0 15 -10 15 -30 0 -20 5 -30
15 -30 8 0 15 -7 15 -15 0 -8 7 -15 15 -15 10 0 15 -10 15 -30 0 -20 5 -30 15
-30 8 0 15 -7 15 -15 0 -8 7 -15 15 -15 10 0 15 -10 15 -30 0 -20 5 -30 15
-30 8 0 15 -7 15 -15 0 -8 7 -15 15 -15 8 0 15 -7 15 -15 0 -8 7 -15 15 -15 8
0 15 -7 15 -15 0 -8 7 -15 15 -15 8 0 15 -7 15 -15 0 -8 7 -15 15 -15 8 0 15
-7 15 -15 0 -8 7 -15 15 -15 8 0 15 -7 15 -15 0 -8 7 -15 15 -15 8 0 15 -7 15
-15 0 -8 7 -15 15 -15 8 0 15 -7 15 -15 0 -8 7 -15 15 -15 8 0 15 -7 15 -15 0
-8 7 -15 15 -15 8 0 15 -7 15 -15 0 -8 7 -15 15 -15 8 0 15 -9 15 -20 0 -11 7
-20 15 -20 8 0 15 -7 15 -15 0 -10 10 -15 30 -15 20 0 30 -5 30 -15 0 -8 7
-15 15 -15 8 0 15 -7 15 -15 0 -10 10 -15 30 -15 20 0 30 -5 30 -15 0 -8 7
-15 15 -15 8 0 15 -7 15 -15 0 -10 10 -15 30 -15 20 0 30 -5 30 -15 0 -10 10
-15 30 -15 20 0 30 -5 30 -15 0 -8 7 -15 15 -15 8 0 15 -7 15 -15 0 -10 10
-15 30 -15 20 0 30 -5 30 -15 0 -10 10 -15 30 -15 20 0 30 -5 30 -15 0 -11 12
-15 50 -15 38 0 50 -4 50 -15 0 -10 10 -15 30 -15 20 0 30 -5 30 -15 0 -10 10
-15 30 -15 20 0 30 -5 30 -15 0 -11 12 -15 45 -15 33 0 45 -4 45 -15 0 -11 12
-15 45 -15 33 0 45 -4 45 -15 0 -12 13 -15 60 -15 47 0 60 -3 60 -15 0 -11 12
-15 45 -15 33 0 45 -4 45 -15 0 -12 15 -15 75 -15 60 0 75 -3 75 -15 0 -12 15
-15 75 -15 60 0 75 -3 75 -15 0 -12 17 -15 90 -15 73 0 90 -3 90 -15 0 -12 20
-15 120 -15 100 0 120 -2 120 -15 0 -13 27 -15 185 -15 158 0 185 -2 185 -15
0 -13 30 -15 210 -15 180 0 210 -2 210 -15 0 -13 38 -15 285 -15 247 0 285 -2
285 -15 0 -13 49 -15 380 -15 331 0 380 -2 380 -15 0 -13 66 -15 530 -15 464
0 530 -2 530 -15 0 -13 102 -15 860 -15 758 0 860 -2 860 -15 0 -13 188 -15
1630 -15 l1630 0 0 45 c0 33 -4 45 -15 45 -12 0 -15 15 -15 75 0 60 -3 75 -15
75 -12 0 -15 13 -15 60 0 47 -3 60 -15 60 -12 0 -15 13 -15 60 0 47 -3 60 -15
60 -12 0 -15 13 -15 60 0 47 -3 60 -15 60 -12 0 -15 13 -15 60 0 47 -3 60 -15
60 -12 0 -15 14 -15 65 0 51 -3 65 -15 65 -12 0 -15 13 -15 60 0 47 -3 60 -15
60 -12 0 -15 13 -15 60 0 47 -3 60 -15 60 -12 0 -15 13 -15 60 0 47 -3 60 -15
60 -12 0 -15 13 -15 60 0 47 -3 60 -15 60 -12 0 -15 13 -15 60 0 47 -3 60 -15
60 -12 0 -15 13 -15 60 0 47 -3 60 -15 60 -12 0 -15 13 -15 60 0 47 -3 60 -15
60 -12 0 -15 13 -15 60 l0 60 -2085 0 c-1847 0 -2085 2 -2085 15 0 13 -111 15
-935 15 -824 0 -935 2 -935 15 0 13 -69 15 -560 15 -491 0 -560 2 -560 15 0
13 -51 15 -395 15 -344 0 -395 2 -395 15 0 13 -38 15 -285 15 -247 0 -285 2
-285 15 0 13 -33 15 -240 15 -207 0 -240 2 -240 15 0 13 -27 15 -185 15 -158
0 -185 2 -185 15 0 13 -22 15 -135 15 -113 0 -135 2 -135 15 0 12 -17 15 -90
15 -73 0 -90 3 -90 15 0 12 -15 15 -75 15 -60 0 -75 3 -75 15 0 13 -20 15
-120 15 l-120 0 0 -105z"/>
<path d="M43640 19205 c0 -12 -15 -15 -75 -15 -60 0 -75 -3 -75 -15 0 -12 -18
-15 -105 -15 -87 0 -105 -3 -105 -15 0 -13 -22 -15 -135 -15 -113 0 -135 -2
-135 -15 0 -13 -27 -15 -180 -15 -153 0 -180 -2 -180 -15 0 -13 -32 -15 -230
-15 -198 0 -230 -2 -230 -15 0 -13 -40 -15 -300 -15 -260 0 -300 -2 -300 -15
0 -13 -51 -15 -395 -15 -344 0 -395 -2 -395 -15 0 -13 -67 -15 -540 -15 -473
0 -540 -2 -540 -15 0 -13 -111 -15 -940 -15 -829 0 -940 -2 -940 -15 0 -13
-238 -15 -2080 -15 l-2080 0 0 -45 c0 -33 -4 -45 -15 -45 -12 0 -15 -13 -15
-60 0 -47 -3 -60 -15 -60 -12 0 -15 -13 -15 -60 0 -47 -3 -60 -15 -60 -12 0
-15 -13 -15 -60 0 -47 -3 -60 -15 -60 -12 0 -15 -13 -15 -60 0 -47 -3 -60 -15
-60 -12 0 -15 -13 -15 -60 0 -47 -3 -60 -15 -60 -12 0 -15 -13 -15 -60 0 -47
-3 -60 -15 -60 -12 0 -15 -13 -15 -60 0 -53 -2 -60 -20 -60 -18 0 -20 -7 -20
-65 0 -51 -3 -65 -15 -65 -12 0 -15 -13 -15 -60 0 -47 -3 -60 -15 -60 -12 0
-15 -13 -15 -60 0 -47 -3 -60 -15 -60 -12 0 -15 -13 -15 -60 0 -47 -3 -60 -15
-60 -12 0 -15 -13 -15 -60 0 -47 -3 -60 -15 -60 -12 0 -15 -13 -15 -60 0 -47
-3 -60 -15 -60 -12 0 -15 -13 -15 -60 0 -47 -3 -60 -15 -60 -8 0 -15 -7 -15
-15 0 -13 190 -15 1650 -15 1460 0 1650 2 1650 15 0 13 101 15 845 15 744 0
845 2 845 15 0 13 65 15 525 15 460 0 525 2 525 15 0 13 49 15 380 15 331 0
380 2 380 15 0 13 38 15 285 15 247 0 285 2 285 15 0 13 32 15 230 15 198 0
230 2 230 15 0 13 27 15 180 15 153 0 180 2 180 15 0 13 20 15 120 15 100 0
120 3 120 15 0 12 17 15 90 15 73 0 90 3 90 15 0 12 15 15 75 15 60 0 75 3 75
15 0 12 13 15 60 15 47 0 60 3 60 15 0 12 13 15 60 15 47 0 60 3 60 15 0 11
12 15 45 15 33 0 45 4 45 15 0 11 12 15 50 15 38 0 50 4 50 15 0 11 12 15 45
15 33 0 45 4 45 15 0 11 12 15 45 15 33 0 45 4 45 15 0 10 10 15 30 15 20 0
30 5 30 15 0 10 10 15 30 15 20 0 30 5 30 15 0 10 10 15 30 15 20 0 30 5 30
15 0 10 10 15 30 15 20 0 30 5 30 15 0 10 10 15 30 15 20 0 30 5 30 15 0 10
10 15 30 15 20 0 30 5 30 15 0 10 10 15 30 15 20 0 30 5 30 15 0 8 7 15 15 15
8 0 15 7 15 15 0 10 10 15 30 15 20 0 30 5 30 15 0 8 7 15 15 15 8 0 15 7 15
15 0 8 7 15 15 15 8 0 15 7 15 15 0 8 7 15 15 15 8 0 15 9 15 20 0 16 7 20 30
20 20 0 30 5 30 15 0 8 7 15 15 15 8 0 15 7 15 15 0 8 7 15 15 15 8 0 15 7 15
15 0 8 7 15 15 15 8 0 15 7 15 15 0 8 7 15 15 15 8 0 15 7 15 15 0 8 7 15 15
15 8 0 15 7 15 15 0 8 7 15 15 15 8 0 15 7 15 15 0 8 7 15 15 15 8 0 15 7 15
15 0 8 7 15 15 15 10 0 15 10 15 30 0 20 5 30 15 30 8 0 15 7 15 15 0 8 7 15
15 15 8 0 15 7 15 15 0 8 7 15 15 15 10 0 15 10 15 30 0 20 5 30 15 30 8 0 15
7 15 15 0 8 7 15 15 15 10 0 15 10 15 30 0 20 5 30 15 30 10 0 15 10 15 30 0
20 5 30 15 30 10 0 15 10 15 30 0 20 5 30 15 30 10 0 15 10 15 30 0 20 5 30
15 30 10 0 15 10 15 30 0 20 5 30 15 30 11 0 15 12 15 45 0 38 3 45 20 45 18
0 20 7 20 60 0 47 3 60 15 60 12 0 15 13 15 60 0 47 3 60 15 60 12 0 15 17 15
90 l0 90 -125 0 c-104 0 -125 -2 -125 -15z"/>
<path d="M14350 16690 c0 -100 3 -120 15 -120 11 0 15 -12 15 -45 0 -33 4 -45
15 -45 11 0 15 -12 15 -50 0 -38 4 -50 15 -50 11 0 15 -12 15 -45 0 -33 4 -45
15 -45 10 0 15 -10 15 -30 0 -20 5 -30 15 -30 10 0 15 -10 15 -30 0 -20 5 -30
15 -30 10 0 15 -10 15 -30 0 -20 5 -30 15 -30 10 0 15 -10 15 -30 0 -20 5 -30
15 -30 8 0 15 -7 15 -15 0 -8 7 -15 15 -15 10 0 15 -10 15 -30 0 -20 5 -30 15
-30 8 0 15 -7 15 -15 0 -8 7 -15 15 -15 8 0 15 -7 15 -15 0 -8 7 -15 15 -15 8
0 15 -7 15 -15 0 -8 7 -15 15 -15 10 0 15 -10 15 -30 0 -20 5 -30 15 -30 8 0
15 -7 15 -15 0 -8 7 -15 15 -15 8 0 15 -7 15 -15 0 -8 7 -15 15 -15 8 0 15 -7
15 -15 0 -8 7 -15 15 -15 8 0 15 -7 15 -15 0 -10 10 -15 30 -15 20 0 30 -5 30
-15 0 -8 7 -15 15 -15 8 0 15 -7 15 -15 0 -8 7 -15 15 -15 8 0 15 -7 15 -15 0
-8 7 -15 15 -15 8 0 15 -7 15 -15 0 -10 10 -15 30 -15 20 0 30 -5 30 -15 0 -8
7 -15 15 -15 8 0 15 -7 15 -15 0 -8 7 -15 15 -15 8 0 15 -7 15 -15 0 -10 10
-15 30 -15 20 0 30 -5 30 -15 0 -10 10 -15 30 -15 20 0 30 -5 30 -15 0 -10 10
-15 30 -15 20 0 30 -5 30 -15 0 -8 7 -15 15 -15 8 0 15 -7 15 -15 0 -11 12
-15 45 -15 33 0 45 -4 45 -15 0 -10 10 -15 30 -15 20 0 30 -5 30 -15 0 -10 10
-15 30 -15 20 0 30 -5 30 -15 0 -11 12 -15 45 -15 33 0 45 -4 45 -15 0 -11 12
-15 50 -15 38 0 50 -4 50 -15 0 -11 12 -15 45 -15 33 0 45 -4 45 -15 0 -11 12
-15 45 -15 33 0 45 -4 45 -15 0 -12 13 -15 60 -15 47 0 60 -3 60 -15 0 -12 15
-15 75 -15 60 0 75 -3 75 -15 0 -12 17 -15 90 -15 73 0 90 -3 90 -15 0 -12 20
-15 120 -15 100 0 120 -2 120 -15 0 -13 25 -15 165 -15 140 0 165 -2 165 -15
0 -13 32 -15 230 -15 223 0 230 -1 230 -20 0 -20 7 -20 285 -20 247 0 285 -2
285 -15 0 -13 51 -15 395 -15 344 0 395 -2 395 -15 0 -13 70 -15 570 -15 500
0 570 -2 570 -15 0 -13 129 -15 1105 -15 976 0 1105 -2 1105 -15 0 -13 122
-15 1040 -15 l1040 0 0 80 c0 64 -3 80 -15 80 -12 0 -15 13 -15 60 0 47 -3 60
-15 60 -12 0 -15 13 -15 60 0 47 -3 60 -15 60 -12 0 -15 13 -15 60 0 47 -3 60
-15 60 -12 0 -15 13 -15 60 0 47 -3 60 -15 60 -12 0 -15 13 -15 60 0 47 -3 60
-15 60 -12 0 -15 13 -15 60 0 47 -3 60 -15 60 -12 0 -15 15 -15 75 0 60 -3 75
-15 75 -12 0 -15 13 -15 60 0 47 -3 60 -15 60 -12 0 -15 13 -15 60 0 47 -3 60
-15 60 -12 0 -15 13 -15 60 0 47 -3 60 -15 60 -12 0 -15 13 -15 60 0 47 -3 60
-15 60 -12 0 -15 14 -15 65 0 51 -3 65 -15 65 -10 0 -15 10 -15 30 l0 30
-1920 0 c-1700 0 -1920 2 -1920 15 0 13 -109 15 -920 15 -811 0 -920 2 -920
15 0 13 -66 15 -530 15 -464 0 -530 2 -530 15 0 13 -48 15 -375 15 -327 0
-375 2 -375 15 0 13 -37 15 -270 15 -233 0 -270 2 -270 15 0 13 -31 15 -215
15 -184 0 -215 2 -215 15 0 13 -25 15 -165 15 -140 0 -165 2 -165 15 0 12 -18
15 -105 15 -87 0 -105 3 -105 15 0 12 -17 15 -90 15 -73 0 -90 3 -90 15 0 13
-22 15 -135 15 l-135 0 0 -120z"/>
<path d="M42310 16795 c0 -12 -17 -15 -90 -15 -73 0 -90 -3 -90 -15 0 -12 -18
-15 -105 -15 -87 0 -105 -3 -105 -15 0 -13 -25 -15 -165 -15 -140 0 -165 -2
-165 -15 0 -13 -30 -15 -210 -15 -180 0 -210 -2 -210 -15 0 -13 -37 -15 -275
-15 -238 0 -275 -2 -275 -15 0 -13 -48 -15 -375 -15 -327 0 -375 -2 -375 -15
0 -13 -66 -15 -530 -15 -464 0 -530 -2 -530 -15 0 -13 -111 -15 -935 -15 -824
0 -935 -2 -935 -15 0 -13 -218 -15 -1905 -15 -1687 0 -1905 -2 -1905 -15 0 -8
-7 -15 -15 -15 -12 0 -15 -14 -15 -65 0 -51 -3 -65 -15 -65 -12 0 -15 -13 -15
-60 0 -47 -3 -60 -15 -60 -12 0 -15 -13 -15 -60 0 -47 -3 -60 -15 -60 -12 0
-15 -13 -15 -60 0 -47 -3 -60 -15 -60 -12 0 -15 -13 -15 -60 0 -47 -3 -60 -15
-60 -12 0 -15 -13 -15 -60 0 -47 -3 -60 -15 -60 -12 0 -15 -13 -15 -60 0 -47
-3 -60 -15 -60 -12 0 -15 -13 -15 -60 0 -47 -3 -60 -15 -60 -12 0 -15 -13 -15
-60 0 -47 -3 -60 -15 -60 -12 0 -15 -13 -15 -60 0 -47 -3 -60 -15 -60 -12 0
-15 -15 -15 -75 0 -60 -3 -75 -15 -75 -12 0 -15 -13 -15 -60 0 -47 -3 -60 -15
-60 -12 0 -15 -14 -15 -65 0 -51 -3 -65 -15 -65 -8 0 -15 -7 -15 -15 0 -8 7
-15 15 -15 8 0 15 -7 15 -15 0 -13 122 -15 1040 -15 918 0 1040 2 1040 15 0
13 128 15 1090 15 962 0 1090 2 1090 15 0 13 71 15 575 15 504 0 575 2 575 15
0 13 50 15 390 15 340 0 390 2 390 15 0 13 41 15 305 15 298 0 305 0 305 20 0
19 7 20 225 20 193 0 225 2 225 15 0 13 25 15 165 15 140 0 165 2 165 15 0 13
20 15 120 15 100 0 120 3 120 15 0 12 17 15 90 15 73 0 90 3 90 15 0 12 14 15
65 15 51 0 65 3 65 15 0 12 13 15 60 15 47 0 60 3 60 15 0 12 13 15 60 15 47
0 60 3 60 15 0 11 12 15 45 15 33 0 45 4 45 15 0 11 12 15 45 15 33 0 45 4 45
15 0 10 10 15 30 15 20 0 30 5 30 15 0 11 12 15 45 15 33 0 45 4 45 15 0 10
10 15 30 15 20 0 30 5 30 15 0 10 10 15 30 15 20 0 30 5 30 15 0 10 10 15 30
15 20 0 30 5 30 15 0 10 10 15 30 15 20 0 30 5 30 15 0 10 10 15 30 15 20 0
30 5 30 15 0 8 7 15 15 15 8 0 15 7 15 15 0 10 10 15 30 15 20 0 30 5 30 15 0
8 7 15 15 15 8 0 15 7 15 15 0 10 10 15 30 15 20 0 30 5 30 15 0 8 7 15 15 15
8 0 15 7 15 15 0 8 7 15 15 15 8 0 15 7 15 15 0 8 7 15 15 15 8 0 15 7 15 15
0 8 7 15 15 15 8 0 15 7 15 15 0 8 7 15 15 15 8 0 15 7 15 15 0 8 7 15 15 15
8 0 15 7 15 15 0 8 7 15 15 15 8 0 15 7 15 15 0 8 7 15 15 15 8 0 15 7 15 15
0 8 7 15 15 15 8 0 15 7 15 15 0 8 7 15 15 15 8 0 15 7 15 15 0 8 7 15 15 15
8 0 15 7 15 15 0 8 7 15 15 15 10 0 15 10 15 30 0 20 5 30 15 30 8 0 15 7 15
15 0 8 9 15 20 15 16 0 20 7 20 30 0 20 5 30 15 30 8 0 15 7 15 15 0 8 7 15
15 15 10 0 15 10 15 30 0 20 5 30 15 30 10 0 15 10 15 30 0 20 5 30 15 30 11
0 15 12 15 45 0 33 4 45 15 45 10 0 15 10 15 30 0 20 5 30 15 30 12 0 15 14
15 65 0 51 3 65 15 65 12 0 15 13 15 60 0 47 3 60 15 60 12 0 15 17 15 90 l0
90 -140 0 c-118 0 -140 -2 -140 -15z"/>
</g>
</svg>
