<svg xmlns="http://www.w3.org/2000/svg" width="1552.698" height="545.061" viewBox="0 0 1552.698 545.061">
  <g id="Group_26" data-name="Group 26" transform="translate(-203.651 -3599.47)">
    <g id="Group_16" data-name="Group 16" transform="translate(-190.5)">
      <path id="Icon_awesome-html5" data-name="Icon awesome-html5" d="M0,2.25,10.173,117.622,55.82,132.837l45.939-15.216L111.932,2.25ZM89.837,39.532H36.261l1.2,14.4H88.642L84.678,97.188l-28.537,7.87v.087H55.82L27.05,97.188,25.3,75.093h13.9L40.226,86.2,55.82,90.426,71.473,86.2l1.749-18.131H24.573L20.842,25.627H91.12l-1.283,13.9Z" transform="translate(394.151 3597.22)" fill="#262626"/>
      <text id="HTML" transform="translate(398 3814)" fill="#980303" font-size="45" font-family="Fira Code"><tspan x="0" y="0">HTML</tspan></text>
    </g>
    <g id="Group_17" data-name="Group 17" transform="translate(-119.349)">
      <path id="Icon_simple-css3" data-name="Icon simple-css3" d="M2.25,0H116.514L106.121,117.327l-46.865,13.26-46.6-13.266ZM95.239,24.012,23.525,24l1.159,14.267,55.092.011L78.388,53.051H42.259l1.306,14H77.2L75.21,86.22,59.377,90.6,43.293,86.188,42.27,74.707h-14.2l1.578,20.976,29.736,9.266,29.235-8.325,6.622-72.607Z" transform="translate(628.75 3599.47)" fill="#262626"/>
      <text id="CSS" transform="translate(648 3814)" fill="#980303" font-size="45" font-family="Fira Code"><tspan x="0" y="0">CSS</tspan></text>
    </g>
    <g id="Group_18" data-name="Group 18" transform="translate(20.651)">
      <path id="Icon_simple-javascript" data-name="Icon simple-javascript" d="M0,0H130.587V130.587H0ZM119.89,99.442c-.952-5.958-4.832-10.964-16.34-15.632-4-1.877-8.456-3.183-9.778-6.2a6.425,6.425,0,0,1-.25-3.836c.816-3.515,4.979-4.571,8.243-3.591a8.852,8.852,0,0,1,5.311,4.9c5.626-3.678,5.626-3.678,9.549-6.121a22.458,22.458,0,0,0-3.189-4.244c-3.428-3.836-7.993-5.795-15.42-5.626l-3.836.484a17.54,17.54,0,0,0-9.3,5.468c-6.2,7.025-4.413,19.267,3.1,24.327,7.427,5.55,18.288,6.769,19.675,12,1.306,6.366-4.734,8.407-10.7,7.672-4.413-.979-6.856-3.189-9.549-7.269l-9.957,5.719c1.143,2.612,2.449,3.749,4.407,6.034,9.468,9.555,33.137,9.065,37.386-5.463a18.416,18.416,0,0,0,.4-8.978l.25.365ZM71.012,60.021H58.781c0,10.545-.049,21.025-.049,31.586,0,6.7.343,12.857-.751,14.751-1.8,3.749-6.421,3.27-8.521,2.612-2.155-1.066-3.248-2.536-4.516-4.652a4.668,4.668,0,0,0-.691-1.066l-9.93,6.121a19.246,19.246,0,0,0,7.2,8.254c4.652,2.775,10.9,3.673,17.45,2.2,4.26-1.23,7.933-3.76,9.854-7.677,2.775-5.06,2.187-11.263,2.16-18.206.065-11.176,0-22.358,0-33.621l.022-.3Z" transform="translate(870.151 3599.47)" fill="#262626"/>
      <text id="JavaScript" transform="translate(800 3814)" fill="#980303" font-size="45" font-family="Fira Code"><tspan x="0" y="0">JavaScript</tspan></text>
    </g>
    <g id="Group_19" data-name="Group 19" transform="translate(160.5)">
      <path id="Icon_simple-react" data-name="Icon simple-react" d="M68.269,50.555A12.169,12.169,0,1,0,80.438,62.724,12.169,12.169,0,0,0,68.269,50.555ZM34.18,86.931l-2.685-.683C11.481,81.191,0,72.606,0,62.7s11.481-18.49,31.495-23.547l2.685-.677.757,2.662A133.865,133.865,0,0,0,42.691,61.5l.575,1.212-.575,1.212a132.591,132.591,0,0,0-7.754,20.356ZM30.249,45.372C15.036,49.645,5.7,56.182,5.7,62.7S15.036,75.752,30.249,80.03A141.943,141.943,0,0,1,36.974,62.7a140.816,140.816,0,0,1-6.725-17.329Zm72.109,41.559-.757-2.668a132.879,132.879,0,0,0-7.76-20.35L93.267,62.7l.575-1.212a133.239,133.239,0,0,0,7.76-20.356l.757-2.662,2.691.677c20.009,5.058,31.489,13.642,31.489,23.553s-11.481,18.49-31.489,23.547ZM99.565,62.7A140.673,140.673,0,0,1,106.29,80.03c15.218-4.278,24.549-10.815,24.549-17.329S121.5,49.651,106.29,45.372A141.024,141.024,0,0,1,99.565,62.7ZM30.209,45.344l-.757-2.657c-5.627-19.832-3.92-34.044,4.682-39,8.437-4.87,21.983.882,36.177,15.452l1.934,1.986-1.934,1.986a133.99,133.99,0,0,0-13.779,16.88l-.768,1.1-1.337.114a134.589,134.589,0,0,0-21.533,3.47ZM41,7.625a7.938,7.938,0,0,0-4.011.984c-5.655,3.26-6.656,14.593-2.759,29.885a142.921,142.921,0,0,1,18.393-2.85A141.353,141.353,0,0,1,64.293,21.171C55.418,12.529,47.015,7.625,41,7.625ZM95.549,123.467h0c-8.107,0-18.518-6.1-29.322-17.2l-1.934-1.986,1.934-1.986A133.863,133.863,0,0,0,80,85.412l.768-1.1L82.1,84.2a134.434,134.434,0,0,0,21.545-3.465l2.685-.677.762,2.663c5.615,19.821,3.914,34.038-4.688,38.993a13.54,13.54,0,0,1-6.855,1.752Zm-23.3-19.235c8.875,8.642,17.278,13.546,23.3,13.546h.006a7.916,7.916,0,0,0,4.005-.984c5.655-3.26,6.662-14.6,2.759-29.891a142.338,142.338,0,0,1-18.4,2.85,140.37,140.37,0,0,1-11.668,14.479Zm34.083-58.888-2.685-.677A133.573,133.573,0,0,0,82.1,41.2l-1.331-.114L80,39.985a133.205,133.205,0,0,0-13.773-16.88L64.293,21.12l1.934-1.986C80.416,4.57,93.956-1.182,102.4,3.683c8.6,4.961,10.309,19.172,4.688,39Zm-22.415-9.7a141.879,141.879,0,0,1,18.4,2.85c3.9-15.292,2.9-26.625-2.759-29.885-5.621-3.248-16.186,1.729-27.308,12.562A141.369,141.369,0,0,1,83.914,35.644ZM41,123.467a13.54,13.54,0,0,1-6.861-1.752c-8.6-4.955-10.309-19.167-4.682-38.993l.751-2.663,2.685.677A134.283,134.283,0,0,0,54.422,84.2l1.337.114.762,1.1A134.242,134.242,0,0,0,70.3,102.3l1.934,1.985L70.3,106.269c-10.8,11.094-21.209,17.2-29.3,17.2ZM34.226,86.9c-3.9,15.292-2.9,26.631,2.759,29.891,5.615,3.2,16.174-1.735,27.308-12.562A142.216,142.216,0,0,1,52.619,89.753,142.09,142.09,0,0,1,34.226,86.9Zm34.044,3.573c-4.682,0-9.5-.2-14.314-.6l-1.337-.114-.768-1.1q-4.088-5.875-7.68-12.072T37.537,63.913L36.968,62.7l.569-1.212q3.052-6.473,6.634-12.675c2.355-4.073,4.944-8.135,7.68-12.072l.768-1.1,1.337-.114a169.448,169.448,0,0,1,28.633,0l1.331.114.762,1.1A170.707,170.707,0,0,1,99,61.49l.575,1.212L99,63.913A168.4,168.4,0,0,1,84.682,88.661l-.762,1.1-1.331.114C77.77,90.271,72.951,90.476,68.269,90.476Zm-12.5-6.167a165.236,165.236,0,0,0,25,0A165.019,165.019,0,0,0,93.267,62.7a162.624,162.624,0,0,0-12.5-21.607,165.162,165.162,0,0,0-25,0A162.009,162.009,0,0,0,43.271,62.7a165.635,165.635,0,0,0,12.5,21.607Z" transform="translate(1126.151 3601.484)" fill="#262626"/>
      <text id="React" transform="translate(1127 3814)" fill="#980303" font-size="45" font-family="Fira Code"><tspan x="0" y="0">React</tspan></text>
    </g>
    <g id="Group_20" data-name="Group 20" transform="translate(230.5 4)">
      <path id="Icon_simple-redux" data-name="Icon simple-redux" d="M95.436,92.066A9.549,9.549,0,0,0,104.037,82a9.908,9.908,0,0,0-9.8-9.456h-.35A9.811,9.811,0,0,0,84.431,82.7a10.475,10.475,0,0,0,2.834,6.616c-6.013,11.694-15.039,20.289-28.712,27.513a47.074,47.074,0,0,1-28.368,5.33c-7.907-1.113-14.092-4.648-17.879-10.317-5.669-8.6-6.185-17.879-1.463-27.163A40.541,40.541,0,0,1,22.887,70.658a57.147,57.147,0,0,1-2.41-8.848C-4.976,80.039-2.388,104.964,5.346,116.744c5.761,8.6,17.541,14.092,30.433,14.092a44.653,44.653,0,0,0,10.575-1.113c22.355-4.3,39.287-17.707,49-37.48l.08-.178Zm30.686-21.494C112.8,54.925,93.2,46.329,70.844,46.329H67.918a9.251,9.251,0,0,0-8.59-5.158H59.07a9.621,9.621,0,0,0-9.45,10.058,9.906,9.906,0,0,0,9.8,9.456h.425a9.7,9.7,0,0,0,8.6-6.019h3.185A66.578,66.578,0,0,1,108.851,66.1a47.127,47.127,0,0,1,18.568,22.355c3.087,7.39,2.921,14.614-.258,20.639-4.9,9.45-13.157,14.442-24.07,14.442a44.877,44.877,0,0,1-17.024-3.7c-2.06,1.71-5.5,4.55-8,6.271,7.562,3.431,15.217,5.411,22.607,5.411,16.766,0,29.223-9.45,33.957-18.568,5.153-10.317,4.728-27.679-8.429-42.552ZM37.237,95.153a9.894,9.894,0,0,0,9.8,9.456h.344a9.8,9.8,0,0,0-.258-19.595h-.35a3.7,3.7,0,0,0-1.291.166,64.212,64.212,0,0,1-9.02-38.851A46.668,46.668,0,0,1,46.774,19.161c5.158-6.449,14.872-9.634,21.494-9.8,18.568-.35,26.308,22.785,26.9,31.983l8.6,2.576C101.788,15.724,84.259.931,67.493.931c-15.733,0-30.256,11.436-36.108,28.2-7.993,22.355-2.748,43.843,7.052,61.039a7.605,7.605,0,0,0-1.2,4.98Z" transform="translate(1388.151 3598.538)" fill="#262626"/>
      <text id="Redux" transform="translate(1390 3814)" fill="#980303" font-size="45" font-family="Fira Code"><tspan x="0" y="0">Redux</tspan></text>
    </g>
    <g id="Group_14" data-name="Group 14" transform="translate(-53.528 58.53)">
      <path id="Icon_simple-ruby" data-name="Icon simple-ruby" d="M110.348.164c16.6,2.874,21.313,14.223,20.963,26.114l.082-.17-7.473,97.931L26.771,130.7h.088C18.795,130.358.821,129.618,0,104.49L9.006,88.066l15.433,36.056,2.754,6.416,15.356-50.06-.164.038.088-.164L93.141,96.535,85.5,66.8l-5.42-21.351,48.287-3.115L125,39.544,90.332,11.283,110.364.109ZM0,104.216v0ZM28.085,27.483C47.58,8.141,72.742-3.29,82.4,6.46c9.646,9.729-.575,33.423-20.108,52.754-19.506,19.337-44.361,31.392-54,21.663-9.668-9.729.246-34.036,19.775-53.378l.016-.016Z" transform="translate(716.056 3858.36)" fill="#262626"/>
      <text id="Ruby" transform="translate(728 4072)" fill="#980303" font-size="45" font-family="Fira Code"><tspan x="0" y="0">Ruby</tspan></text>
    </g>
    <g id="Group_15" data-name="Group 15" transform="translate(63 58.53)">
      <path id="Icon_simple-rails" data-name="Icon simple-rails" d="M221.961,94.776v12.366h21.063c4.316,0,11.723-3.348,11.98-12.708V89.652a12.253,12.253,0,0,0-11.98-12.708h-10.5V71.205h20.8V58.771H233.362a12.624,12.624,0,0,0-12.045,12.913v4.3A12.387,12.387,0,0,0,233.362,88.7c14.493.068-3.478,0,9.919,0v6.012l-21.32.068ZM109.113,91.77s11.272-1.025,11.272-16.466-13.655-16.876-13.655-16.876H82.124v48.714H94.491V95.391l10.692,11.751h18.293L109.113,91.77ZM104.346,81.8H94.491V70.659h9.919s2.77,1.093,2.77,5.534S104.346,81.8,104.346,81.8Zm46.569-23.024h-12.56c-8.953,0-11.98,8.609-11.98,12.708v35.664h12.56V98.6h11.787v8.54H162.9V71.479c0-10.385-8.889-12.708-11.98-12.708ZM150.722,84.8H138.871V72.982s0-2.665,3.929-2.665h4.316c3.478,0,3.543,2.665,3.543,2.665V84.8h.064Zm17.906-26.031H181.7v48.372H168.629ZM200.061,94.64V58.771H187.05v48.372h30.6V94.64ZM4.509,107.143H55.394s-9.726-47.074,22.48-66.136c7.021-3.621,29.372-17.149,65.957,11.546,1.159-1.025,2.254-1.845,2.254-1.845S112.591,15.25,75.3,19.212c-18.744,1.776-41.8,19.882-55.329,43.794S4.509,107.143,4.509,107.143Zm0,0H55.394s-9.726-47.074,22.48-66.136c7.021-3.621,29.372-17.149,65.957,11.546,1.159-1.025,2.254-1.845,2.254-1.845S112.591,15.25,75.3,19.212c-18.744,1.776-41.8,19.882-55.329,43.794S4.509,107.143,4.509,107.143Zm0,0H55.394s-9.726-47.074,22.48-66.136c7.021-3.621,29.372-17.149,65.957,11.546,1.159-1.025,2.254-1.845,2.254-1.845S112.591,15.25,75.3,19.212C56.489,20.989,33.429,39.094,19.9,63.007S4.509,107.143,4.509,107.143Zm106.021-84.1.258-4.578a30.4,30.4,0,0,0-6.248-2.391l-.258,4.509c2.126.752,4.187,1.571,6.248,2.46Zm-6.119,14.484-.258,4.3a33.962,33.962,0,0,1,6.377.82l.258-4.236A43.143,43.143,0,0,0,104.411,37.523ZM80.578,16.206h.644l-1.288-4.168a48.491,48.491,0,0,0-6.183.41l1.224,4.031a51.289,51.289,0,0,1,5.6-.273ZM83.67,41.349l1.481,4.714a39.431,39.431,0,0,1,5.6-2.391l-1.417-4.509A45.037,45.037,0,0,0,83.67,41.349ZM54.428,23.38l-2.9-4.714c-1.61.888-3.285,1.845-5.024,2.938l2.963,4.783C51.143,25.293,52.753,24.268,54.428,23.38Zm13.2,30.745,3.092,4.919a37.531,37.531,0,0,1,3.8-4.851l-2.9-4.646A37.048,37.048,0,0,0,67.632,54.125Zm-9.34,22L63.51,80.5A57.568,57.568,0,0,1,64.862,72.5l-4.638-3.894a68.1,68.1,0,0,0-1.932,7.515ZM30.08,43.672l-4.573-4.236c-1.675,1.708-3.285,3.416-4.766,5.124l4.96,4.509a68.243,68.243,0,0,1,4.38-5.4ZM10.628,74.212l-7.407-2.87C2,74.28.644,77.7,0,79.541l7.407,2.87C8.245,80.087,9.6,76.739,10.628,74.212Zm46.7,19.267a73.5,73.5,0,0,0,.773,8.609l7.729,2.938c-.58-2.665-1.159-5.671-1.546-8.882Z" transform="translate(1008 3864.431)" fill="#262626"/>
      <text id="Ruby_on_Rails" data-name="Ruby on Rails" transform="translate(960 4072)" fill="#980303" font-size="45" font-family="Fira Code"><tspan x="0" y="0">Ruby on Rails</tspan></text>
    </g>
  </g>
</svg>
